<svg xmlns="http://www.w3.org/2000/svg" width="63" height="65.75" viewBox="0 0 63 65.75">
  <g id="tetrahedron_1_" data-name="tetrahedron (1)" transform="translate(-10.708)">
    <g id="Group_46" data-name="Group 46" transform="translate(10.708)">
      <g id="Group_45" data-name="Group 45">
        <path id="Path_48" data-name="Path 48" d="M73.574,63.792,43.439.781C43.43.764,43.411.759,43.4.742a1.337,1.337,0,0,0-2.394,0c-.008.016-.03.022-.038.038L10.832,63.792c-.014.027-.006.058-.016.088a1.355,1.355,0,0,0-.093.466.887.887,0,0,0-.014.148,1.328,1.328,0,0,0,.159.545c.006.011.019.014.025.025s.006.036.016.052a1.357,1.357,0,0,0,.359.337c.047.036.077.09.126.118a1.363,1.363,0,0,0,.674.181H72.339a1.368,1.368,0,0,0,1.236-1.959ZM68.6,63.011H14.421a1.387,1.387,0,0,0-.115-.137L42.2,4.545l27.648,57.8A1.36,1.36,0,0,0,68.6,63.011Z" transform="translate(-10.708)" fill="#118f43"/>
      </g>
    </g>
    <g id="Group_48" data-name="Group 48" transform="translate(32.071 49.978)">
      <g id="Group_47" data-name="Group 47">
        <path id="Path_49" data-name="Path 49" d="M182.154,389.9a1.369,1.369,0,0,0-1.857-.548l-2.52,1.375a1.37,1.37,0,0,0,1.312,2.405l2.52-1.375A1.368,1.368,0,0,0,182.154,389.9Z" transform="translate(-177.062 -389.183)" fill="#118f43"/>
      </g>
    </g>
    <g id="Group_50" data-name="Group 50" transform="translate(16.943 58.23)">
      <g id="Group_49" data-name="Group 49">
        <path id="Path_50" data-name="Path 50" d="M64.351,454.154a1.368,1.368,0,0,0-1.857-.548l-2.52,1.375a1.371,1.371,0,0,0,.655,2.573,1.4,1.4,0,0,0,.658-.167l2.52-1.375A1.367,1.367,0,0,0,64.351,454.154Z" transform="translate(-59.259 -453.439)" fill="#118f43"/>
      </g>
    </g>
    <g id="Group_52" data-name="Group 52" transform="translate(24.507 54.105)">
      <g id="Group_51" data-name="Group 51">
        <path id="Path_51" data-name="Path 51" d="M123.253,422.034a1.371,1.371,0,0,0-1.857-.548l-2.52,1.375a1.37,1.37,0,0,0,.655,2.572,1.4,1.4,0,0,0,.658-.167l2.52-1.375A1.367,1.367,0,0,0,123.253,422.034Z" transform="translate(-118.161 -421.32)" fill="#118f43"/>
      </g>
    </g>
    <g id="Group_54" data-name="Group 54" transform="translate(39.635 45.203)">
      <g id="Group_53" data-name="Group 53">
        <path id="Path_52" data-name="Path 52" d="M240.4,354.229l-.5-.285v-.575a1.37,1.37,0,1,0-2.74,0v.556l-.485.266a1.37,1.37,0,0,0,1.312,2.405l.529-.288.526.3a1.351,1.351,0,0,0,.679.181,1.369,1.369,0,0,0,.679-2.559Z" transform="translate(-235.963 -351.999)" fill="#118f43"/>
      </g>
    </g>
    <g id="Group_56" data-name="Group 56" transform="translate(54.019 54.106)">
      <g id="Group_55" data-name="Group 55">
        <path id="Path_53" data-name="Path 53" d="M352.421,422.879l-2.4-1.37a1.369,1.369,0,0,0-1.359,2.378l2.4,1.37a1.351,1.351,0,0,0,.679.181,1.37,1.37,0,0,0,.679-2.559Z" transform="translate(-347.974 -421.328)" fill="#118f43"/>
      </g>
    </g>
    <g id="Group_58" data-name="Group 58" transform="translate(61.213 58.218)">
      <g id="Group_57" data-name="Group 57">
        <path id="Path_54" data-name="Path 54" d="M408.442,454.9l-2.4-1.37a1.369,1.369,0,1,0-1.359,2.378l2.4,1.37a1.351,1.351,0,0,0,.679.181,1.37,1.37,0,0,0,.679-2.559Z" transform="translate(-403.995 -453.349)" fill="#118f43"/>
      </g>
    </g>
    <g id="Group_60" data-name="Group 60" transform="translate(46.821 49.994)">
      <g id="Group_59" data-name="Group 59">
        <path id="Path_55" data-name="Path 55" d="M296.375,390.858l-2.4-1.37a1.369,1.369,0,1,0-1.359,2.378l2.4,1.37a1.351,1.351,0,0,0,.679.181,1.369,1.369,0,0,0,.679-2.559Z" transform="translate(-291.925 -389.307)" fill="#118f43"/>
      </g>
    </g>
    <g id="Group_62" data-name="Group 62" transform="translate(40.833 14.262)">
      <g id="Group_61" data-name="Group 61">
        <path id="Path_56" data-name="Path 56" d="M246.667,111.061a1.37,1.37,0,0,0-1.37,1.37v2.578a1.37,1.37,0,0,0,2.74,0v-2.578A1.37,1.37,0,0,0,246.667,111.061Z" transform="translate(-245.297 -111.061)" fill="#118f43"/>
      </g>
    </g>
    <g id="Group_64" data-name="Group 64" transform="translate(40.833 21.999)">
      <g id="Group_63" data-name="Group 63">
        <path id="Path_57" data-name="Path 57" d="M246.667,171.307a1.37,1.37,0,0,0-1.37,1.37v2.578a1.37,1.37,0,1,0,2.74,0v-2.578A1.37,1.37,0,0,0,246.667,171.307Z" transform="translate(-245.297 -171.307)" fill="#118f43"/>
      </g>
    </g>
    <g id="Group_66" data-name="Group 66" transform="translate(40.833 6.528)">
      <g id="Group_65" data-name="Group 65">
        <path id="Path_58" data-name="Path 58" d="M246.667,50.837a1.37,1.37,0,0,0-1.37,1.37v2.578a1.37,1.37,0,1,0,2.74,0V52.207A1.37,1.37,0,0,0,246.667,50.837Z" transform="translate(-245.297 -50.837)" fill="#118f43"/>
      </g>
    </g>
    <g id="Group_68" data-name="Group 68" transform="translate(40.833 29.733)">
      <g id="Group_67" data-name="Group 67">
        <path id="Path_59" data-name="Path 59" d="M246.667,231.531a1.37,1.37,0,0,0-1.37,1.37v2.578a1.37,1.37,0,1,0,2.74,0V232.9A1.37,1.37,0,0,0,246.667,231.531Z" transform="translate(-245.297 -231.531)" fill="#118f43"/>
      </g>
    </g>
    <g id="Group_70" data-name="Group 70" transform="translate(40.833 37.469)">
      <g id="Group_69" data-name="Group 69">
        <path id="Path_60" data-name="Path 60" d="M246.667,291.776a1.37,1.37,0,0,0-1.37,1.37v2.578a1.37,1.37,0,0,0,2.74,0v-2.578A1.37,1.37,0,0,0,246.667,291.776Z" transform="translate(-245.297 -291.776)" fill="#118f43"/>
      </g>
    </g>
  </g>
</svg>
