
<svg xmlns="http://www.w3.org/2000/svg" width="25.115" height="25.229" viewBox="0 0 25.115 25.229">
  <g id="think" transform="translate(-1.157 0)">
    <path id="Path_462" data-name="Path 462" d="M387.817,30.932a.517.517,0,0,1-.388-.159c-.371-.371-.008-1.026.349-1.555a7.4,7.4,0,0,1,.9-1.085l1.815-1.815a7.392,7.392,0,0,1,1.086-.9c.529-.357,1.184-.719,1.555-.348.246.246.368.728-.89,2.277a18.635,18.635,0,0,1-2.536,2.536C388.707,30.694,388.151,30.932,387.817,30.932Zm1.392-2.269a6.644,6.644,0,0,0-.809.975,4.364,4.364,0,0,0-.255.419,6.958,6.958,0,0,0,1.089-.757,17.887,17.887,0,0,0,2.427-2.427,6.95,6.95,0,0,0,.756-1.089,4.4,4.4,0,0,0-.419.254,6.648,6.648,0,0,0-.975.809Z" transform="translate(-367.09 -23.685)" fill="#7d8995"/>
    <g id="Group_231" data-name="Group 231" transform="translate(5.169 8.027)">
      <path id="Path_463" data-name="Path 463" d="M100.514,351.4h.01a1.524,1.524,0,0,0,0-3.048H86.5a1.524,1.524,0,0,0,0,3.048h.01" transform="translate(-84.861 -339.209)" fill="#7d8995"/>
      <path id="Path_464" data-name="Path 464" d="M129.461,261.372a68.754,68.754,0,0,0-13.3,0,47.149,47.149,0,0,0-.3,8.269,3.9,3.9,0,0,0,3.715,3.7q3.238.153,6.476,0a3.9,3.9,0,0,0,3.715-3.7A47.142,47.142,0,0,0,129.461,261.372Z" transform="translate(-114.159 -256.214)" fill="#77838e"/>
      <path id="Path_465" data-name="Path 465" d="M116.168,261.368q3.324-.322,6.65-.322a17.7,17.7,0,0,0-3.367.325q-.262,4.174-.154,8.348c.047,1.831.716,3.324,1.594,3.665q-.656-.018-1.312-.049a3.9,3.9,0,0,1-3.715-3.7A47.207,47.207,0,0,1,116.168,261.368Z" transform="translate(-114.165 -256.21)" fill="#7d8995"/>
      <path id="Path_466" data-name="Path 466" d="M223.414,414.515a1.962,1.962,0,0,1-1.765-1.116.375.375,0,1,1,.678-.322,1.2,1.2,0,0,0,2.174,0,.375.375,0,1,1,.678.322A1.962,1.962,0,0,1,223.414,414.515Z" transform="translate(-214.761 -400.546)" fill="#7d8995"/>
      <g id="Group_229" data-name="Group 229" transform="translate(4.776 9.185)">
        <path id="Path_467" data-name="Path 467" d="M180.113,349.3c-.349,0-.632.423-.632.942s.284.942.632.942.632-.423.632-.942S180.462,349.3,180.113,349.3Z" transform="translate(-179.481 -349.298)" fill="#454045"/>
        <path id="Path_468" data-name="Path 468" d="M311.811,349.3c-.349,0-.632.423-.632.942s.284.942.632.942.632-.423.632-.942S312.16,349.3,311.811,349.3Z" transform="translate(-304.689 -349.298)" fill="#454045"/>
      </g>
      <path id="Path_469" data-name="Path 469" d="M94.915,170.359c-2.548.984-6.167.55-7.991-1.274,0,0-.433,2.962-2.677,2.962l-.979.329c-2.614-10.26,2.961-7.518,2.961-7.518a2.652,2.652,0,0,1,2.094-1.544c.071-.009.141-.015.212-.02h.017a4.648,4.648,0,0,1,1.643.248c.177.057.346.12.5.185a7.729,7.729,0,0,1,1.2.616l.019.013c.574-.759,1.121-1.446,1.723-1.446a.627.627,0,0,1,.532.246c.434.569.078,1.937.049,2.045v0l0,0,0-.008c.077-.194.939-2.282,2.485-2.282a1.206,1.206,0,0,1,.263.027c1.152.255.25,2.27.151,2.484l0,.006-.005.011c.049-.063,1.979-2.513,2.837-1.389h0c.865,1.14-2.492,5.327-5.039,6.311Z" transform="translate(-82.57 -162.909)" fill="#8f9ca8"/>
      <g id="Group_230" data-name="Group 230" transform="translate(0 0)">
        <path id="Path_470" data-name="Path 470" d="M380.572,180.328h0c-.434-.433-1.936,1.612-2.838,1.39l.007-.012-.005.011C377.785,181.654,379.714,179.2,380.572,180.328Z" transform="translate(-363.189 -179.189)" fill="#7d8995"/>
        <path id="Path_471" data-name="Path 471" d="M321.729,162.936c-.651-.148-1.255,1.092-1.6,1.972a.729.729,0,0,1-1.064.356l-.093-.058V165.2h0l0-.008c.077-.194.939-2.282,2.485-2.282A1.207,1.207,0,0,1,321.729,162.936Z" transform="translate(-307.326 -162.909)" fill="#7d8995"/>
        <path id="Path_472" data-name="Path 472" d="M88.32,171.125c-1.864.329-2.568,4.6-1.4,5.772,0,0-.433,2.962-2.677,2.962l-.979.329c-2.614-10.26,2.961-7.518,2.961-7.518A2.652,2.652,0,0,1,88.32,171.125Z" transform="translate(-82.568 -170.72)" fill="#7d8995"/>
        <path id="Path_473" data-name="Path 473" d="M237.389,163.155c-.655-.655-1.092,2.7-2.567,3.243s-1.613-.15-1.613-.15h0a5.344,5.344,0,0,0,1.925-1.892h0l.054-.071.068-.09c.53-.693,1.042-1.286,1.6-1.286A.627.627,0,0,1,237.389,163.155Z" transform="translate(-225.786 -162.909)" fill="#7d8995"/>
      </g>
    </g>
    <path id="Path_474" data-name="Path 474" d="M58.25,6.063h-.008a.375.375,0,0,1-.355-.277L57.18,3.158H56.2a.375.375,0,1,1,0-.75h1.271a.375.375,0,0,1,.362.278l.447,1.66L59.554.264A.375.375,0,0,1,59.912,0h2.516a.375.375,0,1,1,0,.75H60.187L58.608,5.8A.375.375,0,0,1,58.25,6.063Z" transform="translate(-51.971 -0.001)" fill="#454045"/>
    <g id="Group_232" data-name="Group 232" transform="translate(7.998 1.998)">
      <path id="Path_475" data-name="Path 475" d="M141.269,45.337a3.414,3.414,0,0,1-.864-.035.394.394,0,0,1-.256-.259c-.065-.213.027-.333.273-.656.2-.264.577-.755,1.206-1.654a2.257,2.257,0,0,0,.359-.713l.014-.107a.639.639,0,0,0-1.266-.1.375.375,0,0,1-.736-.145,1.389,1.389,0,0,1,2.753.269.386.386,0,0,1,0,.048l-.02.153c0,.012,0,.025-.007.037a2.939,2.939,0,0,1-.48.991c-.474.677-.806,1.127-1.03,1.423.377,0,.867,0,1.327-.009h0a.375.375,0,0,1,0,.75C141.982,45.334,141.57,45.337,141.269,45.337Z" transform="translate(-139.991 -40.545)" fill="#665e66"/>
    </g>
    <path id="Path_488" data-name="Path 488" d="M1.857,0A1.857,1.857,0,1,1,0,1.857,1.857,1.857,0,0,1,1.857,0Z" transform="translate(21.334 2.378)" fill="#7d8995"/>
    <path id="Path_476" data-name="Path 476" d="M414.143,54.862a1.857,1.857,0,1,1-2.5-2.5,1.857,1.857,0,0,0,2.5,2.5Z" transform="translate(-389.297 -49.784)" fill="#717b84"/>
    <path id="Path_477" data-name="Path 477" d="M227.169,12.077l-1.544-4.09,0-.01a.467.467,0,0,0-.434-.291h0a.468.468,0,0,0-.434.292l0,.008-1.558,4.09a.375.375,0,1,0,.7.267l.3-.777h1.985l.293.776a.375.375,0,1,0,.7-.265Zm-2.694-1.261.711-1.868.7,1.868Z" transform="translate(-211.071 -7.307)" fill="#7d8995"/>
    <path id="Path_478" data-name="Path 478" d="M12.682,13.194l.181-.181a.375.375,0,1,0-.53-.53l-.181.181-.181-.181a.375.375,0,0,0-.53.53l.181.181-.181.181a.375.375,0,0,0,.531.53l.181-.181.181.181a.375.375,0,1,0,.531-.53Z" transform="translate(-9.673 -11.764)" fill="#7d8995"/>
    <path id="Path_479" data-name="Path 479" d="M476.741,147.072l.181-.181a.375.375,0,1,0-.53-.53l-.181.181-.181-.181a.375.375,0,1,0-.53.53l.181.181-.181.181a.375.375,0,0,0,.53.53l.181-.181.181.181a.375.375,0,1,0,.53-.53Z" transform="translate(-450.865 -139.045)" fill="#7d8995"/>
    <path id="Path_480" data-name="Path 480" d="M321.636,107.792l.181-.181a.375.375,0,1,0-.53-.53l-.181.181-.181-.181a.375.375,0,1,0-.53.53l.181.181-.181.181a.375.375,0,0,0,.53.53l.181-.181.181.181a.375.375,0,1,0,.53-.53Z" transform="translate(-303.403 -101.701)" fill="#7d8995"/>
    <path id="Path_481" data-name="Path 481" d="M12.424,291.091H11.7v-.723a.375.375,0,1,0-.75,0v.723h-.723a.375.375,0,1,0,0,.75h.723v.723a.375.375,0,1,0,.75,0v-.723h.723a.375.375,0,0,0,0-.75Z" transform="translate(-8.267 -275.703)" fill="#7d8995"/>
    <g id="Group_233" data-name="Group 233" transform="translate(1.157 5.361)">
      <path id="Path_487" data-name="Path 487" d="M2.132,0A2.132,2.132,0,1,1,0,2.132,2.132,2.132,0,0,1,2.132,0Z" transform="translate(0.375 0.375)" fill="#8f9ca8"/>
      <path id="Path_482" data-name="Path 482" d="M3.664,113.823a2.507,2.507,0,1,1,2.507-2.507,2.51,2.51,0,0,1-2.507,2.507Zm0-4.264a1.757,1.757,0,1,0,1.757,1.757,1.759,1.759,0,0,0-1.757-1.757Z" transform="translate(-1.157 -108.809)" fill="#7d8995"/>
      <path id="Path_483" data-name="Path 483" d="M45.364,132.133H44.8a.375.375,0,0,1-.375-.375v-1.073a.375.375,0,0,1,.75,0v.7h.186a.375.375,0,0,1,0,.75Z" transform="translate(-42.296 -129.251)" fill="#454045"/>
    </g>
    <path id="Path_484" data-name="Path 484" d="M347.766,4.361a.375.375,0,0,1-.338-.538l.61-1.268h-.778a.375.375,0,0,1-.338-.538L347.79.212a.375.375,0,1,1,.676.325l-.61,1.268h.778a.375.375,0,0,1,.338.538L348.1,4.149A.375.375,0,0,1,347.766,4.361Z" transform="translate(-328.691 0)" fill="#7d8995"/>
    <path id="Path_485" data-name="Path 485" d="M452.345,217.068a1.223,1.223,0,0,0-.982-1.954h-1.072a.375.375,0,0,0-.375.375v3.69a.375.375,0,0,0,.375.375h0l1.257,0a1.368,1.368,0,0,0,.794-2.481Zm-.982-1.2a.474.474,0,0,1,0,.948h-.7v-.949h.7Zm.187,2.935-.884,0v-1.238h.884a.618.618,0,1,1,0,1.236Z" transform="translate(-426.646 -204.514)" fill="#7d8995"/>
    <path id="Path_486" data-name="Path 486" d="M423.24,56.506c-.09.122-.194.257-.313.4a17.889,17.889,0,0,1-2.427,2.427c-.122.1-.235.187-.34.266l.617.472q.1-.074.2-.156a18.635,18.635,0,0,0,2.536-2.536c.1-.12.185-.233.267-.34Z" transform="translate(-398.356 -53.722)" fill="#7d8995"/>
  </g>
</svg>
