<svg xmlns="http://www.w3.org/2000/svg" width="29.032" height="29.018" viewBox="0 0 29.032 29.018">
  <g id="atoms-symbol" transform="translate(0 -0.114)">
    <circle id="Ellipse_164" data-name="Ellipse 164" cx="1.777" cy="1.777" r="1.777" transform="translate(12.747 12.848)" fill="#77838e"/>
    <path id="Path_489" data-name="Path 489" d="M27.255,9.354a1.768,1.768,0,0,0-.917.255,12.2,12.2,0,0,0-4.279-.616c-.516,0-1.057.018-1.619.053C20.921,4.239,20.205.654,18.4.169a1.635,1.635,0,0,0-.425-.055c-1.707,0-3.84,2.525-5.646,6.422A15.794,15.794,0,0,0,5.965,3.547,1.777,1.777,0,1,0,3.422,5.783c.094,1.671,1.22,4.1,3.113,6.783C2.254,14.506-.409,16.815.051,18.531.417,19.895,2.675,20.6,5.933,20.6a28.024,28.024,0,0,0,2.839-.155,14.685,14.685,0,0,0,.614,6A1.777,1.777,0,1,0,12.65,27.72c1.272-.79,2.655-2.616,3.914-5.118,2.806,1.985,5.344,3.131,7.021,3.131a2.07,2.07,0,0,0,1.52-.526c1.295-1.295.124-4.714-2.677-8.642A13.869,13.869,0,0,0,27.444,12.9a1.776,1.776,0,0,0-.188-3.543ZM10.606,15.708c.168-.822.365-1.659.591-2.5q.171-.637.358-1.26.766-.235,1.558-.448c.9-.24,1.793-.45,2.675-.628q.638.591,1.267,1.22.739.739,1.426,1.491-.169.734-.368,1.477c-.206.77-.432,1.526-.673,2.261-.827.276-1.684.534-2.561.769q-.761.2-1.518.378-.689-.635-1.368-1.313Q11.274,16.438,10.606,15.708Zm1.343,3.06c-.635.124-1.262.23-1.877.319.068-.628.157-1.274.266-1.932q.4.419.817.837Q11.551,18.389,11.949,18.768Zm5.944-7.513q-.329-.329-.66-.647c.632-.1,1.252-.189,1.856-.255q-.128.891-.308,1.816Q18.348,11.711,17.892,11.255Zm1.364,4.112q.094-.352.182-.7.617.721,1.175,1.44-.852.374-1.774.72Q19.057,16.109,19.257,15.367ZM14.807,4.4a11.288,11.288,0,0,1,1.927-2.426A2.072,2.072,0,0,1,17.972,1.3a.451.451,0,0,1,.118.015c.24.064.5.39.713.895a9.4,9.4,0,0,1,.569,2.99,24.5,24.5,0,0,1-.131,3.947c-.984.1-2.022.25-3.1.451-.957-.863-1.911-1.65-2.843-2.35A24.993,24.993,0,0,1,14.807,4.4ZM12.82,8.364c.623.476,1.249.988,1.874,1.529q-.931.207-1.888.463-.411.11-.814.227C12.251,9.816,12.528,9.074,12.82,8.364ZM5.711,8.98A9.752,9.752,0,0,1,4.636,6.012,1.778,1.778,0,0,0,6.045,4.755,13.188,13.188,0,0,1,10.3,6.622c.5.312,1.017.653,1.534,1.019-.44,1.046-.854,2.174-1.231,3.364-1.041.336-2.033.7-2.962,1.082A25.472,25.472,0,0,1,5.711,8.98ZM8.868,19.241a27.164,27.164,0,0,1-2.936.172,11.891,11.891,0,0,1-3.644-.459c-.729-.248-1.043-.539-1.094-.73a1.415,1.415,0,0,1,.422-.985A9.535,9.535,0,0,1,3.934,15.3,24.9,24.9,0,0,1,7.25,13.542c.629.828,1.324,1.673,2.081,2.521C9.122,17.165,8.969,18.23,8.868,19.241Zm.763-4.632q-.662-.773-1.257-1.542.879-.353,1.818-.676-.071.254-.14.51Q9.822,13.764,9.632,14.609ZM14.5,23.87A11.291,11.291,0,0,1,12.576,26.3c-.052.046-.1.089-.151.129a1.777,1.777,0,0,0-2.063-.759,10.625,10.625,0,0,1-.424-2.6,22.562,22.562,0,0,1,.028-2.77c.98-.134,2-.315,3.054-.542.866.776,1.73,1.489,2.576,2.132C15.244,22.6,14.878,23.266,14.5,23.87Zm1.607-3.076q-.834-.643-1.673-1.365.373-.093.748-.194.9-.242,1.765-.511C16.684,19.442,16.4,20.134,16.11,20.793Zm7.226-.525c1.258,2.434,1.247,3.785.932,4.1a1.072,1.072,0,0,1-.682.179,10.944,10.944,0,0,1-4.842-1.921q-.819-.506-1.661-1.109c.458-1.007.893-2.1,1.294-3.266,1.052-.368,2.045-.764,2.965-1.176A25.635,25.635,0,0,1,23.336,20.268Zm.722-5.973a23.056,23.056,0,0,1-2.344,1.3c-.592-.774-1.242-1.561-1.945-2.352.222-1.032.4-2.037.529-3,.611-.043,1.2-.066,1.761-.066a12.357,12.357,0,0,1,3.5.414,1.777,1.777,0,0,0,.638,1.969A10.383,10.383,0,0,1,24.058,14.3Z" transform="translate(0)" fill="#77838e"/>
  </g>
</svg>
