<svg xmlns="http://www.w3.org/2000/svg" width="23.547" height="31.195" viewBox="0 0 23.547 31.195">
  <g id="book" transform="translate(-62.333 0.031)">
    <path id="Path_497" data-name="Path 497" d="M62.333,369.995h0a3.055,3.055,0,0,0,3.052,3.052H67.07V370A.925.925,0,0,1,68,369.07H85.879v-2.127H65.385A3.055,3.055,0,0,0,62.333,369.995Z" transform="translate(0 -344.521)" fill="#77838e"/>
    <path id="Path_498" data-name="Path 498" d="M269.615,434.161h10.572a.308.308,0,0,0,.308-.308v-1.818h-10.88Z" transform="translate(-194.616 -405.634)" fill="#77838e"/>
    <path id="Path_499" data-name="Path 499" d="M66.065,20.572V0h-.68a3.056,3.056,0,0,0-3.052,3.052V21.64A5.192,5.192,0,0,1,66.065,20.572Z" transform="translate(0 0)" fill="#77838e"/>
    <path id="Path_500" data-name="Path 500" d="M153.686,0V20.572H171.65V.969c.016-1.016-.812-1-1.281-1Zm14.806,8.558a.925.925,0,0,1-.925.925h-9.8a.925.925,0,0,1-.925-.925V4a.925.925,0,0,1,.925-.925h9.8a.925.925,0,0,1,.925.925V8.558Z" transform="translate(-85.771)" fill="#77838e"/>
    <path id="Path_501" data-name="Path 501" d="M170.137,436.489a.308.308,0,0,0,.5.238l1.02-.843a.924.924,0,0,1,1.178,0l1.02.843a.308.308,0,0,0,.5-.238v-4.455h-4.228Z" transform="translate(-101.217 -405.634)" fill="#77838e"/>
    <path id="Path_502" data-name="Path 502" d="M235.652,80.543H243.6v2.711h-7.947Z" transform="translate(-162.728 -75.621)" fill="#77838e"/>
  </g>
</svg>
