<svg id="facebook_1_" data-name="facebook (1)" xmlns="http://www.w3.org/2000/svg" width="10.935" height="20.736" viewBox="0 0 10.935 20.736">
  <path id="Path_504" data-name="Path 504" d="M127.681,20.736h-3.645a.607.607,0,0,1-.607-.607V12.15h-1.822a.607.607,0,0,1-.607-.607V7.9a.607.607,0,0,1,.607-.607h1.822V4.252A4.258,4.258,0,0,1,127.681,0h3.645a.607.607,0,0,1,.607.607V4.252a.607.607,0,0,1-.607.607h-3.037V7.29h3.037a.608.608,0,0,1,.6.707l-.607,3.645a.607.607,0,0,1-.6.508h-2.43v7.978A.607.607,0,0,1,127.681,20.736Z" transform="translate(-120.999)" fill="#87a0a5"/>
</svg>
