<svg id="flaticon-logo" xmlns="http://www.w3.org/2000/svg" width="249" height="45.299" viewBox="0 0 249 45.299">
  <path id="Path_522" data-name="Path 522" d="M141.6,25.377a2.98,2.98,0,0,1,3-3h15.289a2.73,2.73,0,1,1,0,5.46H147.6v5.812h10.53a2.73,2.73,0,1,1,0,5.46H147.6v7.8a3,3,0,0,1-6.006,0Zm23.2-.234a3,3,0,1,1,6.005,0V44.214h11.116a2.731,2.731,0,1,1,0,5.462H167.794a2.979,2.979,0,0,1-3-3Zm21.33,20.671,9.517-21.49a3.708,3.708,0,0,1,3.51-2.378h.352a3.658,3.658,0,0,1,3.469,2.378l9.518,21.49a2.95,2.95,0,0,1,.311,1.209,2.846,2.846,0,0,1-2.847,2.886,3.058,3.058,0,0,1-2.885-2.067l-1.834-4.289H193.219l-1.909,4.485a2.952,2.952,0,0,1-2.769,1.871,2.763,2.763,0,0,1-2.77-2.808A3.177,3.177,0,0,1,186.122,45.814Zm16.888-7.567-3.783-9.011-3.785,9.011Zm15.508-10.335h-5.773a2.77,2.77,0,0,1,0-5.54H230.3a2.77,2.77,0,0,1,0,5.54h-5.772V46.907a3,3,0,0,1-6.006,0Z" transform="translate(-78.735 -12.203)" fill="#fff"/>
  <path id="Path_523" data-name="Path 523" d="M352.615,25.094a3,3,0,1,1,6.006,0V46.858a3,3,0,0,1-6.006,0Zm9.552,10.96v-.079A13.876,13.876,0,0,1,376.4,21.856a14.455,14.455,0,0,1,9.126,2.769A3.008,3.008,0,0,1,386.7,27a2.929,2.929,0,0,1-2.966,2.926,3.158,3.158,0,0,1-1.8-.586,8.974,8.974,0,0,0-5.577-1.95c-4.6,0-7.916,3.823-7.916,8.5v.077c0,4.68,3.237,8.581,7.916,8.581a8.76,8.76,0,0,0,5.931-2.146,2.782,2.782,0,1,1,3.588,4.253,14.384,14.384,0,0,1-23.713-10.608Zm26.138,0v-.079c0-7.761,6.122-14.118,14.546-14.118s14.469,6.279,14.469,14.041v.077c0,7.762-6.12,14.121-14.548,14.121S388.306,43.815,388.306,36.053Zm22.737,0v-.079a8.293,8.293,0,0,0-8.269-8.58,8.166,8.166,0,0,0-8.19,8.5v.077a8.3,8.3,0,0,0,8.269,8.581A8.163,8.163,0,0,0,411.043,36.053Zm9.771-10.883a2.981,2.981,0,0,1,3-3h.622a3.722,3.722,0,0,1,3.12,1.755l11.584,15.212V25.054a2.964,2.964,0,1,1,5.928,0V46.778a2.979,2.979,0,0,1-3,3h-.194a3.721,3.721,0,0,1-3.123-1.755L426.741,32.27V46.9a2.964,2.964,0,1,1-5.927,0V25.17h0Z" transform="translate(-196.072 -12.153)" fill="#69e781"/>
  <path id="Path_524" data-name="Path 524" d="M21.475,24.922h5.557l4.953-8.229H16.509L11.4,8.23H37.076L42.028,0H4.116A4.117,4.117,0,0,0,.591,6.241l22.366,37.07a4.117,4.117,0,0,0,7.047,0l1.287-2.133L21.475,24.922Z" transform="translate(0 0)" fill="#fff"/>
  <path id="Path_525" data-name="Path 525" d="M77.533,8.23h.014v0l9.612,0,1.2-1.992A4.117,4.117,0,0,0,84.836,0h-2.35Zm-2.346,3.914L64.725,29.516l4.792,7.955L84.8,12.145Z" transform="translate(-35.99 0)" fill="#69e781"/>
</svg>
