<svg id="github" xmlns="http://www.w3.org/2000/svg" width="27.076" height="26.405" viewBox="0 0 27.076 26.405">
  <path id="Path_503" data-name="Path 503" d="M18.176,26.7a2.48,2.48,0,0,1-.4.129.659.659,0,0,1-.856-.707c-.007-.987-.007-1.972.009-2.958a4.213,4.213,0,0,0-.873-3.191c.514-.092.971-.156,1.417-.259,2.961-.68,4.5-2.547,4.695-5.647a5.718,5.718,0,0,0-1.23-4.268.519.519,0,0,1-.044-.413,5.2,5.2,0,0,0-.127-3.035.388.388,0,0,0-.462-.312,4.715,4.715,0,0,0-2.368.823,2.474,2.474,0,0,1-2.111.37,11.826,11.826,0,0,0-5.32.126.975.975,0,0,1-.652-.123A8.465,8.465,0,0,0,7.239,6.082c-.74-.144-.8-.107-1,.608A5,5,0,0,0,6.22,9.4a.549.549,0,0,1-.09.441c-1.96,2.187-1.25,6.32.071,7.9a6.342,6.342,0,0,0,3.907,2.071c.264.049.527.087.792.133-.227.59-.431,1.148-.662,1.7a.559.559,0,0,1-.306.239,2.762,2.762,0,0,1-3.613-1.2,2.814,2.814,0,0,0-1.907-1.412.268.268,0,0,0-.081-.016c-.234.061-.465.126-.7.189.131.182.224.428.4.537A3.905,3.905,0,0,1,5.563,21.9a2.948,2.948,0,0,0,2.718,1.885c.613.05,1.231.008,1.9.008,0,.764.028,1.635-.011,2.5-.02.468-.49.655-1.053.463a12.239,12.239,0,0,1-4.071-2.271C.733,20.77-.931,16.071.5,10.57A12.855,12.855,0,0,1,11.232.669,13.521,13.521,0,0,1,18.176,26.7Zm-7.268-6.776-.012.029.042.007C10.949,19.956,10.958,19.975,10.908,19.919ZM7.42,22.358a1.735,1.735,0,0,0,.366.209c.048.015.136-.093.291-.208a2.636,2.636,0,0,0-.478-.172C7.547,22.181,7.48,22.3,7.42,22.358Zm1.1.189a.34.34,0,0,0,.272.179c.091,0,.18-.123.271-.192-.083-.076-.166-.149-.42-.379C8.587,22.315,8.5,22.444,8.519,22.546Zm1.348-.324a1.079,1.079,0,0,0-.313.2c.061.077.121.148.218.268.134-.123.225-.208.317-.291C10.013,22.337,9.923,22.208,9.866,22.222Zm-3.341-.455a3.024,3.024,0,0,0,.292.389c.088-.144.184-.255.167-.277a1.481,1.481,0,0,0-.309-.281C6.668,21.593,6.512,21.741,6.525,21.767Z" transform="translate(0 -0.438)" fill="#87a0a5"/>
</svg>
