<svg xmlns="http://www.w3.org/2000/svg" width="30.971" height="20.03" viewBox="0 0 30.971 20.03">
  <g id="Zrozumiec_logo" data-name="Zrozumiec logo" transform="translate(-547.851 -633.001)">
    <path id="Path_518" data-name="Path 518" d="M6956.79,634.61c.971-2.093,5.559-8.554,13.109-9.07,4.469-.305,10.076.53,15.486,9.07-5.149,7.484-9.356,8.786-13.879,8.915C6963.575,643.763,6957.663,635.628,6956.79,634.61Z" transform="translate(-6407.761 8.501)" fill="none" stroke="#77838e" stroke-width="2"/>
    <path id="Subtraction_1" data-name="Subtraction 1" d="M5.5,11A5.5,5.5,0,1,1,11,5.5,5.506,5.506,0,0,1,5.5,11ZM4.792,4.3h.8l0,.034a11.682,11.682,0,0,0-.016,2.646c.066.657.437,1.049.992,1.049a1.14,1.14,0,0,0,1.067-.694.773.773,0,0,0,0-.545c-.061-.149-.149-.217-.206-.217a.048.048,0,0,0-.038.016.067.067,0,0,0-.011.056.621.621,0,0,1-.007.213.573.573,0,0,1-.521.367.445.445,0,0,1-.264-.086c-.7-.548-.214-2.814-.209-2.837h.867a.451.451,0,0,0,.446-.483c0-.468-.35-.491-.42-.491H4.063c-.51,0-.972.56-1.27,1.03-.062.1-.084.17-.064.207a.069.069,0,0,0,.066.029.5.5,0,0,0,.184-.051,2.54,2.54,0,0,1,.958-.268A.364.364,0,0,1,4.1,4.3a5.71,5.71,0,0,1-.142,2.141c-.028.061-.059.123-.09.187-.224.456-.478.973.06,1.3a.5.5,0,0,0,.246.069.517.517,0,0,0,.375-.178,1.533,1.533,0,0,0,.311-1.126c-.023-.493-.062-2.367-.063-2.386Z" transform="translate(558 638)" fill="#77838e"/>
    <g id="Ellipse_166" data-name="Ellipse 166" transform="translate(554 634)" fill="none" stroke="#77838e" stroke-width="2">
      <ellipse cx="9.5" cy="9" rx="9.5" ry="9" stroke="none"/>
      <ellipse cx="9.5" cy="9" rx="8.5" ry="8" fill="none"/>
    </g>
  </g>
</svg>
