<svg id="map" xmlns="http://www.w3.org/2000/svg" width="27" height="27" viewBox="0 0 27 27">
  <g id="Group_235" data-name="Group 235">
    <g id="Group_234" data-name="Group 234">
      <path id="Path_490" data-name="Path 490" d="M92.14,64.711a1.814,1.814,0,0,1,.923,1.62v.1a.955.955,0,0,0,.05.308l.71,2.082a.876.876,0,0,1,.026.114l.981,4.347a1.029,1.029,0,0,1-.231.918l-.125.126c.008,0,.005.011.006.031h.974l1.094-2.47a2.449,2.449,0,0,1,.217-.391l1.018-1.5a1.724,1.724,0,0,0,.277-1.183l-.052-.376a2.712,2.712,0,0,1,.411-1.824c.066-.09.116-.151.165-.212L99.777,64.9c.361-.454.725-.9,1.089-1.332.191-.226.193-.314.193-.317a.189.189,0,0,0-.118-.138c-.108-.035-.336.089-.518.19-.12.068-.23.135-.339.2s-.219.133-.325.194a.861.861,0,0,1-.684.068.883.883,0,0,1-.523-.458l-1.419-2.979a.481.481,0,0,1-.047-.2c-.017-.954.067-2.172.572-2.554.428-.328,2.56-.554,4.309-.687a4.389,4.389,0,0,0,1.117-.653,9.619,9.619,0,0,1,1.275-1.375H93.812a1.925,1.925,0,0,1,.706.816,3.742,3.742,0,0,0,.751,1.059.483.483,0,0,1,.125.471l-.477,1.721a.482.482,0,0,1-.465.353H93.9a1.654,1.654,0,0,1-1.261-.606.66.66,0,0,0-.523-.267h-.689v6.08a1.565,1.565,0,0,1,.657.2Z" transform="translate(-86.608 -51.963)" fill="#77838e"/>
      <path id="Path_491" data-name="Path 491" d="M93.387,58.06a.687.687,0,0,0,.515.253h.183l.307-1.107a4.217,4.217,0,0,1-.777-1.2c-.126-.338-1.143-.846-1.425-.887a1.216,1.216,0,0,1-.561-.267h-.2V57.44h.689A1.621,1.621,0,0,1,93.387,58.06Z" transform="translate(-86.608 -51.963)" fill="#77838e"/>
      <path id="Path_492" data-name="Path 492" d="M3.857,22.921V1.929A1.929,1.929,0,0,0,0,1.929V22.921A2.875,2.875,0,0,1,3.857,22.921Z" fill="#77838e"/>
      <path id="Path_493" data-name="Path 493" d="M308.845,222.706a.91.91,0,0,1-.81.5h-.489l-.134.216a1.588,1.588,0,0,0-.176,1.332l.381,1.226a.906.906,0,0,1-.555,1.115l-.3.105,1.076,2.28a.908.908,0,0,1-.826,1.286h-.762a.9.9,0,0,1-.585-.214l-1.249-.992-1.787.539.189.2.785.269a.9.9,0,0,1,.6.855v.863l1.764,3.736,2.366-.557L307,234.055a.944.944,0,0,1-.213-.385l-.17-.727a.889.889,0,0,1,.318-.909.907.907,0,0,1,.979-.1l.927.454v-9.683Z" transform="translate(-286.666 -210.962)" fill="#77838e"/>
      <path id="Path_494" data-name="Path 494" d="M440.787,0a1.929,1.929,0,0,0-1.929,1.929V22.921a2.875,2.875,0,0,1,3.857,0V1.929A1.929,1.929,0,0,0,440.787,0Z" transform="translate(-415.715)" fill="#77838e"/>
      <path id="Path_495" data-name="Path 495" d="M25.071,75.107a1.929,1.929,0,0,0-1.929,1.929.482.482,0,0,1-.482.482.475.475,0,0,1-.408-.241.9.9,0,0,1-.254.106l-2.515.593a.89.89,0,0,1-.21.025.92.92,0,0,1-.828-.524l-1.789-3.8a.955.955,0,0,1-.085-.384v-.824L15.8,72.2a.989.989,0,0,1-.35-.225l-.268-.287a.907.907,0,0,1,.393-1.478l1.909-.574a.9.9,0,0,1,.832.154L19.6,70.8h.654l-1.066-2.258a.893.893,0,0,1-.017-.727.9.9,0,0,1,.537-.5l.306-.106-.363-1.166a2.545,2.545,0,0,1,.28-2.132l.147-.237a.917.917,0,0,1,.776-.43h.463v-.41a.913.913,0,0,1,.794-.9l.069-.009V54.857H19.746l-.991.379a14.685,14.685,0,0,0-1.443,1.474A4.028,4.028,0,0,1,15.669,57.8a.472.472,0,0,1-.156.039,24.985,24.985,0,0,0-3.872.5,5.079,5.079,0,0,0-.2,1.664L12.771,62.8l.2-.122c.118-.072.238-.145.357-.212a1.637,1.637,0,0,1,1.31-.269,1.149,1.149,0,0,1,.753.85,1.4,1.4,0,0,1-.4,1.138c-.358.429-.717.865-1.072,1.31l-1.2,1.513c-.042.053-.085.105-.127.16a1.732,1.732,0,0,0-.244,1.144l.052.38a2.688,2.688,0,0,1-.437,1.849l-1.02,1.506a1.513,1.513,0,0,0-.133.242L9.706,74.751a.946.946,0,0,1-.859.573H7.806A.889.889,0,0,1,7,74.8a1.077,1.077,0,0,1,.152-1.114l.137-.14c-.008.007,0-.014-.006-.034L6.3,69.138,6.292,69.1l-.7-2.045a1.907,1.907,0,0,1-.1-.624v-.1a.854.854,0,0,0-.415-.77l-.064-.035a.66.66,0,0,0-.19-.073V77.036a.482.482,0,0,1-.964,0,1.929,1.929,0,1,0-1.929,1.929H25.071a1.929,1.929,0,1,0,0-3.857Z" transform="translate(0 -51.964)" fill="#77838e"/>
      <path id="Path_496" data-name="Path 496" d="M396.876,415.608,398,416.787v-1.145l-1.257-.615Z" transform="translate(-375.819 -393.141)" fill="#77838e"/>
    </g>
  </g>
</svg>
