<svg id="www" xmlns="http://www.w3.org/2000/svg" width="26.711" height="26.631" viewBox="0 0 26.711 26.631">
  <path id="Path_505" data-name="Path 505" d="M188.81,3.967A18.371,18.371,0,0,0,185.6,0,18.371,18.371,0,0,0,182.4,3.967Zm0,0" transform="translate(-172.249)" fill="#87a0a5"/>
  <path id="Path_506" data-name="Path 506" d="M149.5,87.281a18.073,18.073,0,0,0-1.413,3.562h10.229a18.075,18.075,0,0,0-1.413-3.562Zm0,0" transform="translate(-139.849 -82.424)" fill="#87a0a5"/>
  <path id="Path_507" data-name="Path 507" d="M325.827,90.843h6.384a13.35,13.35,0,0,0-2.092-3.562h-5.63A18.986,18.986,0,0,1,325.827,90.843Zm0,0" transform="translate(-306.431 -82.424)" fill="#87a0a5"/>
  <path id="Path_508" data-name="Path 508" d="M324.488,330.842h5.632a13.353,13.353,0,0,0,2.092-3.562h-6.385A19,19,0,0,1,324.488,330.842Zm0,0" transform="translate(-306.431 -309.068)" fill="#87a0a5"/>
  <path id="Path_509" data-name="Path 509" d="M24.42,87.281H18.788A13.341,13.341,0,0,0,16.7,90.843h6.386a18.986,18.986,0,0,1,1.339-3.562Zm0,0" transform="translate(-15.766 -82.424)" fill="#87a0a5"/>
  <path id="Path_510" data-name="Path 510" d="M271.1,4.336A13.311,13.311,0,0,0,262.84.391,19.235,19.235,0,0,1,265.8,4.336Zm0,0" transform="translate(-248.213 -0.369)" fill="#87a0a5"/>
  <path id="Path_511" data-name="Path 511" d="M68.68,407.281a13.312,13.312,0,0,0,8.263,3.945,19.235,19.235,0,0,1-2.958-3.945Zm0,0" transform="translate(-64.858 -384.616)" fill="#87a0a5"/>
  <path id="Path_512" data-name="Path 512" d="M262.84,411.226a13.311,13.311,0,0,0,8.261-3.945h-5.3A19.234,19.234,0,0,1,262.84,411.226Zm0,0" transform="translate(-248.213 -384.617)" fill="#87a0a5"/>
  <path id="Path_513" data-name="Path 513" d="M23.112,327.281H16.727a13.354,13.354,0,0,0,2.092,3.562H24.45a19,19,0,0,1-1.339-3.562Zm0,0" transform="translate(-15.796 -309.068)" fill="#87a0a5"/>
  <path id="Path_514" data-name="Path 514" d="M76.943.391A13.311,13.311,0,0,0,68.68,4.336h5.3A19.235,19.235,0,0,1,76.943.391Zm0,0" transform="translate(-64.858 -0.369)" fill="#87a0a5"/>
  <path id="Path_515" data-name="Path 515" d="M156.906,330.842a18.08,18.08,0,0,0,1.413-3.562H148.09a18.079,18.079,0,0,0,1.413,3.562Zm0,0" transform="translate(-139.849 -309.068)" fill="#87a0a5"/>
  <path id="Path_516" data-name="Path 516" d="M182.4,407.281a18.37,18.37,0,0,0,3.205,3.966,18.37,18.37,0,0,0,3.205-3.966Zm0,0" transform="translate(-172.248 -384.616)" fill="#87a0a5"/>
  <path id="Path_517" data-name="Path 517" d="M26.1,167.281H.614a13.411,13.411,0,0,0,0,8.013H26.1A13.411,13.411,0,0,0,26.1,167.281Zm-18.991,6.35a.445.445,0,0,1-.424.328H6.679a.445.445,0,0,1-.426-.318l-.909-3.03-.909,3.03a.445.445,0,0,1-.426.318H4a.445.445,0,0,1-.424-.328l-1.336-4.9L3.1,168.5l.926,3.4.89-2.962a.445.445,0,0,1,.853,0l.89,2.962.926-3.4.859.234Zm8.013,0a.445.445,0,0,1-.424.328h-.006a.445.445,0,0,1-.426-.318l-.909-3.03-.909,3.03a.445.445,0,0,1-.426.318h-.006a.445.445,0,0,1-.424-.328l-1.336-4.9.859-.234.926,3.4.89-2.962a.445.445,0,0,1,.853,0l.89,2.962.926-3.4.859.234Zm8.013,0a.445.445,0,0,1-.424.328h-.006a.445.445,0,0,1-.426-.318l-.909-3.03-.909,3.03a.445.445,0,0,1-.426.318h-.006a.445.445,0,0,1-.424-.328l-1.336-4.9.859-.234.926,3.4.89-2.962a.445.445,0,0,1,.853,0l.89,2.962.926-3.4.859.234Zm0,0" transform="translate(-0.001 -157.972)" fill="#87a0a5"/>
</svg>
